<?xml version="1.0" encoding="utf-8"?>
<!-- Generator: Adobe Illustrator 22.1.0, SVG Export Plug-In . SVG Version: 6.00 Build 0)  -->
<svg version="1.1" id="Layer_1" xmlns="http://www.w3.org/2000/svg" xmlns:xlink="http://www.w3.org/1999/xlink" x="0px" y="0px"
	 viewBox="0 0 1152 288" style="enable-background:new 0 0 1152 288;" xml:space="preserve">
<style type="text/css">
	.st0{fill:#CC0000;}
</style>
<g>
	<g id="LINE_1_">
		<path class="st0" d="M203.1,176.7c0,47.1,0,91,0,91h43.3v-204h95.8v58.7h-64.9v43.3l102.5,102h61.4l-102.5-102h46.8V20.3H98.3
			l-90,247.3h46.1l37.1-102h80.7v-43.3h-64.9l21.4-58.7h74.4C203.1,63.6,203.1,122.3,203.1,176.7z"/>
	</g>
</g>
<g>
	<path d="M471.1,64.4h-28.3v-5.8h63v5.8h-28.3V130h-6.4V64.4z"/>
	<path d="M518.1,58.6h6.2v29.9h48.4V58.6h6.2V130h-6.2V94.3h-48.4V130h-6.2V58.6z"/>
	<path d="M651.5,95.1h-44.4v29.2h48.8l-1,5.7h-54V58.6h52.9v5.7h-46.7v25.1h44.4V95.1z"/>
	<path d="M709.6,105.5L698.8,130h-6.6l31.7-71.4h6.9l32.9,71.4h-6.9l-11.2-24.5H709.6z M743.1,99.7c-9.8-21.5-14.4-31.3-16-35.8H727
		c-1.4,4.3-6.8,17.2-15,35.8H743.1z"/>
	<path d="M776.6,58.6h6.1v65.6h44.7l-1.1,5.8h-49.7V58.6z"/>
	<path d="M839.4,58.6h6.1v65.6h44.7L889,130h-49.7V58.6z"/>
	<path d="M914.5,105.5L903.7,130h-6.6l31.7-71.4h6.9l32.9,71.4h-6.9l-11.2-24.5H914.5z M948,99.7c-9.8-21.5-14.4-31.3-16-35.8h-0.1
		c-1.4,4.3-6.8,17.2-15,35.8H948z"/>
	<path d="M987.7,97.5V130h-6.2V58.6h31.5c13.7,0,23.7,6,23.7,18.9c0,8.3-3.8,14.7-13.4,17c5.6,1.4,11.5,5.4,11.5,17.7v2.9
		c0,5.8,0,12.1,0.8,14.9h-6.4c-1-3.1-0.7-9.2-0.7-14.3v-2.4c0-12.3-4.8-15.8-18.5-15.8H987.7z M987.7,91.8h23.5
		c12.6,0,19-4.4,19-14.2c0-8.9-6.4-13.2-18.5-13.2h-24V91.8z"/>
	<path d="M1055.8,58.6h27.8c22.5,0,36.1,14.7,36.1,34.6c0,22.9-15.7,36.8-36.2,36.8h-27.7V58.6z M1062,124.3h19.6
		c21.5,0,31.4-13.9,31.4-30.9c0-18.3-12.7-29.1-30.4-29.1H1062V124.3z"/>
</g>
<g>
	<path d="M456.7,202.7v32.4h-5.6v-71.2h28.2c12.3,0,21.2,6,21.2,18.8c0,8.3-3.4,14.7-12,17c5,1.4,10.3,5.4,10.3,17.7v2.9
		c0,5.8,0,12.1,0.7,14.9h-5.7c-0.9-3.1-0.6-9.2-0.6-14.3v-2.4c0-12.3-4.3-15.8-16.6-15.8H456.7z M456.7,197h21.1
		c11.3,0,17-4.4,17-14.2c0-8.9-5.7-13.2-16.6-13.2h-21.5V197z"/>
	<path d="M563.1,200.3h-39.8v29.1h43.7l-0.9,5.7h-48.4v-71.2h47.4v5.7h-41.9v25h39.8V200.3z"/>
	<path d="M581.3,214.8c2.6,9.5,8.6,16.3,22.2,16.3c14,0,19.8-6.5,19.8-14.2c0-8.1-3.8-13.3-21.9-16.7c-17.7-3.3-22.6-9.3-22.6-19
		c0-11.7,9.9-18.7,23.1-18.7c20.2,0,24.6,11.9,25.3,18.5h-5.8c-1.4-5.6-4.5-12.9-19.5-12.9c-10.1,0-17.2,3.9-17.2,12.5
		c0,6.7,2.6,11.2,18.5,14.1c22.4,4.1,26.1,12,26.1,21.6c0,10.8-7.8,20.3-25.9,20.3c-16.8,0-25.8-8.6-28-21.8H581.3z"/>
	<path d="M659.5,169.7h-25.4v-5.8h56.5v5.8h-25.4v65.4h-5.7V169.7z"/>
	<path d="M760.3,199.3c0,20.3-12.4,37.3-32.9,37.3c-20,0-33.2-16.5-33.2-37.4c0-19.8,13.3-36.8,33.2-36.8
		C746.9,162.4,760.3,179.3,760.3,199.3z M700.2,198.9c0,16.3,9.6,31.9,27.2,31.9c17.1,0,27-13.8,27-31.3c0-15.9-9.9-31.3-27.5-31.3
		C710.6,168.2,700.2,182.2,700.2,198.9z"/>
	<path d="M781,202.7v32.4h-5.6v-71.2h28.2c12.3,0,21.2,6,21.2,18.8c0,8.3-3.4,14.7-12,17c5,1.4,10.3,5.4,10.3,17.7v2.9
		c0,5.8,0,12.1,0.7,14.9h-5.7c-0.9-3.1-0.6-9.2-0.6-14.3v-2.4c0-12.3-4.3-15.8-16.6-15.8H781z M781,197h21.1c11.3,0,17-4.4,17-14.2
		c0-8.9-5.7-13.2-16.6-13.2H781V197z"/>
	<path d="M849.4,210.7l-9.7,24.4h-5.9l28.4-71.2h6.2l29.5,71.2h-6.2l-10-24.4H849.4z M879.4,204.9c-8.8-21.4-12.9-31.2-14.3-35.7
		H865c-1.3,4.3-6.1,17.2-13.4,35.7H879.4z"/>
	<path d="M916.3,169.7H891v-5.8h56.5v5.8h-25.4v65.4h-5.7V169.7z"/>
	<path d="M964.1,163.9v71.2h-5.6v-71.2H964.1z"/>
	<path d="M1045.7,199.3c0,20.3-12.4,37.3-32.9,37.3c-20,0-33.2-16.5-33.2-37.4c0-19.8,13.3-36.8,33.2-36.8
		C1032.2,162.4,1045.7,179.3,1045.7,199.3z M985.5,198.9c0,16.3,9.6,31.9,27.2,31.9c17.1,0,27-13.8,27-31.3
		c0-15.9-9.9-31.3-27.5-31.3C996,168.2,985.5,182.2,985.5,198.9z"/>
	<path d="M1060.8,235.1v-71.2h6.8c12.5,18,40.2,56.8,43.6,63.5h0.2c-0.5-10.2-0.4-20.3-0.4-31.8v-31.7h5.4v71.2h-6.5
		c-11.3-16.2-38.8-56.1-43.8-64.4h-0.2c0.4,9.3,0.4,19.3,0.4,31.9v32.5H1060.8z"/>
</g>
</svg>
